<svg width="32" height="30" viewBox="0 0 32 30" fill="none" xmlns="http://www.w3.org/2000/svg">
<path id="Vector" d="M1.75588 23.6241C1.7558 23.5298 1.7558 23.4326 1.7558 23.3324V6.40372C1.7558 4.76907 1.7558 3.95114 2.10558 3.32679C2.41325 2.7776 2.90383 2.33141 3.50767 2.05158C4.19415 1.73346 5.09346 1.73346 6.89076 1.73346H25.5039C27.3011 1.73346 28.1993 1.73346 28.8858 2.05158C29.4896 2.33141 29.9811 2.7776 30.2887 3.32679C30.6382 3.95053 30.6382 4.76747 30.6382 6.39892V23.3366C30.6382 24.0444 30.6382 24.5987 30.6096 25.0503M1.75588 23.6241C1.75711 25.0664 1.77725 25.8215 2.10558 26.4075C2.41325 26.9567 2.90383 27.4044 3.50767 27.6842C4.19347 28.0021 5.0917 28.0021 6.88549 28.0021H25.5093C27.3031 28.0021 28.2 28.0021 28.8858 27.6842C29.4896 27.4044 29.9811 26.9567 30.2887 26.4075C30.4866 26.0544 30.5724 25.6397 30.6096 25.0503M1.75588 23.6241L9.40639 15.5062L9.40865 15.504C10.0872 14.784 10.427 14.4234 10.8301 14.2934C11.1842 14.1792 11.5708 14.1819 11.9231 14.3005C12.3246 14.4357 12.659 14.8004 13.3279 15.5305L17.614 20.2083C18.2331 20.8841 18.5445 21.2239 18.9226 21.3603C19.2561 21.4806 19.6238 21.4942 19.9679 21.4018C20.3596 21.2967 20.7044 20.9831 21.3938 20.3561L22.1914 19.6306C22.8934 18.9922 23.2444 18.6732 23.6417 18.5689C23.9906 18.4773 24.3637 18.497 24.6994 18.6231C25.0816 18.7666 25.3915 19.118 26.0117 19.823L30.6096 25.0503M30.6096 25.0503L30.6381 25.0827M21.0107 10.4897C20.1245 10.4897 19.4061 9.83628 19.4061 9.03029C19.4061 8.22431 20.1245 7.57092 21.0107 7.57092C21.8969 7.57092 22.6153 8.22431 22.6153 9.03029C22.6153 9.83628 21.8969 10.4897 21.0107 10.4897Z" stroke="#8A8A8A" stroke-width="2.02066" stroke-linecap="round" stroke-linejoin="round"/>
</svg>
