<svg width="12" height="13" viewBox="0 0 12 13" fill="none" xmlns="http://www.w3.org/2000/svg">
<path id="Vector" d="M4.41335 2.85812H2.84172C2.21301 2.85812 1.89843 2.85812 1.65829 2.98048C1.44706 3.08811 1.27545 3.25972 1.16783 3.47094C1.04547 3.71108 1.04547 4.02567 1.04547 4.65438V10.0428C1.04547 10.6715 1.04547 10.9857 1.16783 11.2258C1.27545 11.4371 1.44706 11.609 1.65829 11.7166C1.89819 11.8388 2.2124 11.8388 2.83988 11.8388H8.23178C8.85926 11.8388 9.17301 11.8388 9.41291 11.7166C9.62414 11.609 9.79633 11.4369 9.90395 11.2257C10.0262 10.9858 10.0262 10.6719 10.0262 10.0444V8.47107M7.78101 3.41942L4.41324 6.78719V8.47107H6.09712L9.46489 5.1033M7.78101 3.41942L9.46489 1.73553L11.1488 3.41942L9.46489 5.1033M7.78101 3.41942L9.46489 5.1033" stroke="#1F7CFB" stroke-width="1.5155" stroke-linecap="round" stroke-linejoin="round"/>
</svg>
