<svg width="14" height="13" viewBox="0 0 14 13" fill="none" xmlns="http://www.w3.org/2000/svg">
<path d="M12.0119 4.70492L11.7921 4.58607C11.758 4.56762 11.7412 4.55835 11.7247 4.54875C11.5608 4.45332 11.4226 4.32147 11.3218 4.16371C11.3116 4.14784 11.3021 4.13119 11.2825 4.09829C11.263 4.06544 11.2531 4.04879 11.244 4.0323C11.1536 3.86818 11.1047 3.68529 11.1017 3.49913C11.1014 3.48042 11.1015 3.4613 11.1022 3.42328L11.1065 3.17519C11.1133 2.77817 11.1168 2.57905 11.0594 2.40035C11.0084 2.24161 10.9231 2.09541 10.8092 1.97134C10.6804 1.83109 10.5022 1.73104 10.1454 1.53118L9.84895 1.36517C9.49311 1.16587 9.31513 1.06618 9.12621 1.02818C8.95908 0.994558 8.7866 0.996116 8.62007 1.03245C8.43212 1.07346 8.25636 1.17574 7.90506 1.38019L7.90307 1.38112L7.69069 1.50472C7.65711 1.52426 7.64011 1.53411 7.62328 1.54321C7.45625 1.63347 7.26978 1.68338 7.07877 1.68934C7.05952 1.68994 7.03993 1.68994 7.00077 1.68994C6.96186 1.68994 6.94144 1.68994 6.92223 1.68934C6.7308 1.68335 6.54395 1.63317 6.37665 1.54254C6.35979 1.5334 6.34311 1.52347 6.30946 1.50384L6.09573 1.37913C5.74204 1.17274 5.56492 1.06939 5.37592 1.02818C5.20872 0.991716 5.03565 0.990707 4.8679 1.02476C4.6785 1.06321 4.50048 1.16364 4.14443 1.36448L4.14285 1.36517L3.85013 1.53029L3.84689 1.53221C3.49405 1.73125 3.3172 1.83101 3.18953 1.97069C3.07623 2.09464 2.99154 2.24061 2.94085 2.39892C2.88355 2.57787 2.88661 2.77742 2.89351 3.1763L2.8978 3.42405C2.89845 3.46156 2.89958 3.4802 2.8993 3.49866C2.89645 3.68519 2.84689 3.86846 2.75619 4.03287C2.74722 4.04913 2.73755 4.0654 2.71825 4.09787C2.69893 4.13037 2.68958 4.14654 2.67956 4.16222C2.57829 4.32082 2.4395 4.45344 2.27455 4.54904C2.25824 4.5585 2.24104 4.56759 2.20725 4.58579L1.99023 4.70268C1.62915 4.89716 1.44865 4.99449 1.31731 5.133C1.20112 5.25553 1.11335 5.40086 1.05977 5.55915C0.999209 5.73808 0.99926 5.93871 1.0002 6.33995L1.00096 6.66789C1.0019 7.06645 1.00317 7.26559 1.06387 7.4433C1.11757 7.60053 1.20471 7.74501 1.32024 7.8668C1.45084 8.00446 1.62954 8.10118 1.98789 8.29494L2.20297 8.41124C2.23958 8.43103 2.258 8.4408 2.27565 8.45113C2.4391 8.5468 2.5768 8.67905 2.67722 8.83674C2.68806 8.85378 2.69848 8.87146 2.7193 8.90682C2.73987 8.94174 2.75039 8.9592 2.7599 8.9767C2.84794 9.1387 2.89508 9.31871 2.89829 9.50189C2.89864 9.52168 2.89834 9.5417 2.89764 9.58193L2.89351 9.81968C2.88656 10.2199 2.88353 10.4203 2.94116 10.5997C2.99215 10.7585 3.07737 10.9047 3.19128 11.0287C3.32005 11.169 3.49856 11.269 3.85541 11.4688L4.15175 11.6348C4.5076 11.8341 4.68546 11.9337 4.87438 11.9717C5.04151 12.0053 5.21408 12.004 5.38061 11.9677C5.56883 11.9266 5.74519 11.824 6.09749 11.6189L6.30987 11.4953C6.34347 11.4758 6.36048 11.466 6.37732 11.4569C6.54435 11.3666 6.73063 11.3164 6.92164 11.3105C6.94089 11.3099 6.96047 11.3099 6.99963 11.3099C7.03888 11.3099 7.05844 11.3099 7.07773 11.3105C7.26916 11.3165 7.45658 11.3668 7.62387 11.4574C7.63859 11.4654 7.65334 11.474 7.67923 11.4892L7.90501 11.6209C8.25876 11.8273 8.43549 11.9304 8.6245 11.9716C8.79171 12.008 8.96491 12.0095 9.13266 11.9755C9.32201 11.937 9.50039 11.8364 9.85624 11.6357L10.1534 11.4681C10.5064 11.2689 10.6835 11.169 10.8112 11.0293C10.9245 10.9054 11.0093 10.7594 11.06 10.6011C11.1169 10.4235 11.1134 10.2255 11.1066 9.83235L11.1022 9.57595C11.1015 9.53843 11.1014 9.51977 11.1017 9.50132C11.1046 9.31478 11.1533 9.13138 11.244 8.96697C11.253 8.95074 11.2627 8.93435 11.282 8.90197C11.3013 8.86948 11.3113 8.85328 11.3213 8.8376C11.4226 8.679 11.5615 8.54626 11.7264 8.45066C11.7426 8.44132 11.7592 8.43238 11.7921 8.41462L11.7933 8.41411L12.0103 8.29722C12.3714 8.10273 12.5522 8.0053 12.6836 7.8668C12.7997 7.74427 12.8874 7.59913 12.941 7.44085C13.0012 7.26297 13.0007 7.0635 12.9998 6.66695L12.999 6.33197C12.9981 5.93342 12.9976 5.7343 12.9369 5.55659C12.8832 5.39936 12.7956 5.25488 12.68 5.13309C12.5495 4.99556 12.3706 4.8988 12.0129 4.70542L12.0119 4.70492Z" stroke="#525252" stroke-width="1.5" stroke-linecap="round" stroke-linejoin="round"/>
<path d="M4.59925 6.50004C4.59925 7.78883 5.67419 8.83361 7.00019 8.83361C8.32619 8.83361 9.40112 7.78883 9.40112 6.50004C9.40112 5.21125 8.32619 4.16647 7.00019 4.16647C5.67419 4.16647 4.59925 5.21125 4.59925 6.50004Z" stroke="#525252" stroke-width="1.5" stroke-linecap="round" stroke-linejoin="round"/>
</svg>
