<svg width="14" height="12" viewBox="0 0 14 12" fill="none" xmlns="http://www.w3.org/2000/svg">
<path d="M1 11H2.2M2.2 11H5.8M2.2 11V5.76951C2.2 5.44254 2.2 5.27898 2.23898 5.12683C2.27353 4.992 2.33068 4.86441 2.40742 4.74911C2.49402 4.619 2.61438 4.51111 2.85566 4.2958L5.73662 1.72494C6.18391 1.3258 6.40757 1.12621 6.65945 1.05024C6.88157 0.983253 7.11831 0.983253 7.34043 1.05024C7.5925 1.12627 7.81649 1.32604 8.26445 1.72579L11.1445 4.2958C11.3857 4.5111 11.5061 4.619 11.5927 4.74911C11.6695 4.86441 11.7262 4.992 11.7607 5.12683C11.7997 5.27898 11.8 5.44254 11.8 5.76951V11M5.8 11H8.2M5.8 11V8.55237C5.8 7.87648 6.33726 7.32856 7 7.32856C7.66274 7.32856 8.2 7.87648 8.2 8.55237V11M8.2 11H11.8M11.8 11H13" stroke="white" stroke-width="1.5" stroke-linecap="round" stroke-linejoin="round"/>
</svg>
