<svg width="60" height="60" viewBox="0 0 60 60" fill="none" xmlns="http://www.w3.org/2000/svg">
<rect width="60" height="60" rx="30" fill="#1F7CFB"/>
<path fill-rule="evenodd" clip-rule="evenodd" d="M19.9924 30.9658L26.014 27.4915L28.6183 25.9904L33.2752 23.3009V28.6344H36.2831V21.9476C36.2831 21.1231 35.8851 20.4351 35.1743 20.02C34.4636 19.6106 33.6618 19.6106 32.9511 20.02L27.1228 23.3862L24.5186 24.8873L18.4856 28.3615C17.7692 28.7766 17.5247 29.6977 17.9341 30.4142C18.3491 31.1306 19.276 31.3808 19.9924 30.9658ZM36.2774 31.6367H33.2695V38.6363C33.2695 39.4608 33.9461 40.1374 34.7706 40.1374C35.5951 40.1374 36.2717 39.4608 36.2717 38.6363L36.2774 31.6367Z" fill="#FFA401"/>
<path fill-rule="evenodd" clip-rule="evenodd" d="M36.067 46.0225C37.5795 46.0225 38.876 45.272 39.6322 43.9642L43.0325 38.0791L46.4328 32.1939C47.1891 30.8804 47.1891 29.3793 46.4328 28.0772L43.0325 22.1921L39.6322 16.307C38.876 14.9992 37.5795 14.2486 36.067 14.2486H29.2722H22.4773C20.9591 14.2486 19.6626 15.0048 18.9121 16.307L15.5118 22.1921L12.1172 28.0772C11.3609 29.385 11.3609 30.8861 12.1172 32.1939L15.5175 38.0791L18.9178 43.9642C19.6683 45.2663 20.9648 46.0225 22.4829 46.0225H36.067ZM36.2774 31.6367H43.277L37.0337 42.463C36.8176 42.844 36.5106 43.0203 36.0727 43.0203H23.5747L30.1421 31.6367H33.2752H36.2774ZM33.2695 28.6287H30.1364L28.6126 25.9847L26.0083 27.4858L27.5322 30.1299L20.9704 41.5135L14.7157 30.6871C14.4997 30.3062 14.4997 29.9536 14.7157 29.5783L20.9704 18.7577L24.5129 24.893L27.1171 23.3918L23.5747 17.2565H36.0727C36.5106 17.2565 36.8176 17.4328 37.0337 17.8138L43.2827 28.6401H36.2831L33.2695 28.6287Z" fill="white"/>
</svg>
