<svg width="13" height="11" viewBox="0 0 13 11" fill="none" xmlns="http://www.w3.org/2000/svg">
<path d="M2.83333 3.8125L1 5.5M1 5.5L2.83333 7.1875M1 5.5L7.11111 5.5M5.27778 2.68763C5.27778 2.16345 5.27778 1.90135 5.37081 1.69461C5.49486 1.41895 5.73294 1.19982 6.03242 1.08564C6.25703 1 6.54163 1 7.11111 1L10.0444 1C10.729 1 11.071 1 11.3324 1.12262C11.5624 1.23048 11.7497 1.40245 11.8669 1.61414C12 1.85455 12 2.16943 12 2.79826L12 8.20201C12 8.83084 12 9.14527 11.8669 9.38568C11.7497 9.59737 11.5624 9.76964 11.3324 9.8775C11.0712 10 10.7295 10 10.0463 10L7.11111 10C6.54163 10 6.25702 9.99994 6.03242 9.91431C5.73294 9.80013 5.49486 9.58117 5.37081 9.30552C5.27778 9.09878 5.27778 8.83668 5.27778 8.3125" stroke="#C0293D" stroke-width="2" stroke-linecap="round" stroke-linejoin="round"/>
</svg>
