<svg width="12" height="12" viewBox="0 0 12 12" fill="none" xmlns="http://www.w3.org/2000/svg">
<path id="Vector" d="M4.33344 2.11111H2.77789C2.15561 2.11111 1.84423 2.11111 1.60655 2.23222C1.39748 2.33874 1.22763 2.5086 1.1211 2.71767C1 2.95534 1 3.26672 1 3.889V9.22233C1 9.84461 1 10.1556 1.1211 10.3933C1.22763 10.6023 1.39748 10.7725 1.60655 10.879C1.844 11 2.155 11 2.77606 11H8.11283C8.73389 11 9.04444 11 9.28189 10.879C9.49095 10.7725 9.66138 10.6022 9.7679 10.3931C9.88889 10.1557 9.88889 9.845 9.88889 9.22394V7.66667M7.66667 2.66667L4.33333 6V7.66667H6L9.33333 4.33333M7.66667 2.66667L9.33333 1L11 2.66667L9.33333 4.33333M7.66667 2.66667L9.33333 4.33333" stroke="white" stroke-linecap="round" stroke-linejoin="round"/>
</svg>
