<svg width="23" height="10" viewBox="0 0 23 10" fill="none" xmlns="http://www.w3.org/2000/svg">
<path d="M2.67561 9.12267C2.18494 9.12267 1.75152 9.02862 1.37534 8.84053C1.00734 8.64427 0.704765 8.38258 0.467609 8.05547L1.27721 7.3072C1.43259 7.53618 1.62477 7.712 1.85374 7.83467C2.0909 7.95733 2.35259 8.01867 2.63881 8.01867C2.92503 8.01867 3.17854 7.95733 3.39934 7.83467C3.62014 7.712 3.79188 7.53209 3.91454 7.29493C4.04539 7.0496 4.11081 6.75111 4.11081 6.39947V0.486933H5.26388V6.33813C5.26388 6.9024 5.14939 7.39307 4.92041 7.81013C4.69961 8.2272 4.39294 8.55022 4.00041 8.7792C3.61605 9.00818 3.17445 9.12267 2.67561 9.12267ZM7.95171 5.688V4.68213H10.2701C10.589 4.68213 10.8712 4.61671 11.1165 4.48587C11.37 4.35502 11.5663 4.17102 11.7053 3.93387C11.8525 3.69671 11.9261 3.41458 11.9261 3.08747C11.9261 2.76035 11.8525 2.47822 11.7053 2.24107C11.5663 2.00391 11.37 1.81991 11.1165 1.68907C10.8712 1.55822 10.589 1.4928 10.2701 1.4928H7.95171V0.486933H10.3437C10.8671 0.486933 11.3332 0.593244 11.7421 0.805866C12.1592 1.01849 12.4863 1.32107 12.7234 1.7136C12.9688 2.09795 13.0914 2.55591 13.0914 3.08747C13.0914 3.61084 12.9688 4.0688 12.7234 4.46133C12.4863 4.84569 12.1592 5.14827 11.7421 5.36907C11.3332 5.58169 10.8671 5.688 10.3437 5.688H7.95171ZM7.17891 9V0.486933H8.33198V9H7.17891ZM18.4697 9.12267C17.8727 9.12267 17.3126 9.01227 16.7892 8.79147C16.274 8.56249 15.8201 8.24764 15.4276 7.84693C15.0432 7.44622 14.7406 6.98009 14.5198 6.44853C14.299 5.91698 14.1886 5.34453 14.1886 4.7312C14.1886 4.11787 14.299 3.54951 14.5198 3.02613C14.7406 2.49458 15.0473 2.02844 15.4398 1.62773C15.8324 1.22702 16.2903 0.916266 16.8137 0.695466C17.3453 0.474666 17.9218 0.364265 18.5433 0.364265C19.2221 0.364265 19.8477 0.49511 20.4201 0.756799C20.9926 1.01849 21.471 1.39467 21.8553 1.88533L21.058 2.68267C20.7881 2.29013 20.4324 1.99164 19.9908 1.7872C19.5492 1.57458 19.0667 1.46827 18.5433 1.46827C17.9218 1.46827 17.3698 1.60729 16.8873 1.88533C16.413 2.16338 16.0409 2.54773 15.771 3.0384C15.5094 3.52907 15.3785 4.09333 15.3785 4.7312C15.3785 5.37724 15.5134 5.9456 15.7833 6.43627C16.0532 6.92693 16.4171 7.31129 16.875 7.58933C17.333 7.86738 17.8564 8.0064 18.4452 8.0064C19.0422 8.0064 19.5574 7.89191 19.9908 7.66293C20.4324 7.43396 20.7718 7.09867 21.0089 6.65707C21.2461 6.20729 21.3646 5.65938 21.3646 5.01333L22.0638 5.51627H18.3838V4.46133H22.5545V4.63307C22.5545 5.62258 22.3787 6.45262 22.027 7.1232C21.6836 7.7856 21.2011 8.28444 20.5796 8.61973C19.9662 8.95502 19.263 9.12267 18.4697 9.12267Z" fill="#8A8A8A"/>
</svg>
