<svg width="12" height="14" viewBox="0 0 12 14" fill="none" xmlns="http://www.w3.org/2000/svg">
<path id="Vector" d="M7.25 5.66667V10.3333M4.75 5.66667V10.3333M2.25 3V10.8667C2.25 11.6134 2.25 11.9865 2.38624 12.2717C2.50608 12.5226 2.69717 12.727 2.93237 12.8548C3.1995 13 3.54937 13 4.24807 13H7.75193C8.45063 13 8.79999 13 9.06712 12.8548C9.30232 12.727 9.49405 12.5226 9.61389 12.2717C9.75 11.9868 9.75 11.614 9.75 10.8687V3M2.25 3H3.5M2.25 3H1M3.5 3H8.5M3.5 3C3.5 2.37874 3.5 2.06827 3.59515 1.82324C3.72202 1.49654 3.9652 1.23682 4.27148 1.10149C4.5012 1 4.79257 1 5.375 1H6.625C7.20743 1 7.49864 1 7.72835 1.10149C8.03464 1.23682 8.27792 1.49654 8.40479 1.82324C8.49994 2.06827 8.5 2.37875 8.5 3M8.5 3H9.75M9.75 3H11" stroke="#C0293D" stroke-width="1.5" stroke-linecap="round" stroke-linejoin="round"/>
</svg>
