<svg width="31" height="28" viewBox="0 0 31 28" fill="none" xmlns="http://www.w3.org/2000/svg">
<path id="Vector" d="M1.00008 22.6668C1 22.5735 1 22.4773 1 22.3781V5.6225C1 4.00458 1 3.19501 1.3462 2.57704C1.65073 2.03346 2.13629 1.59184 2.73396 1.31487C3.41342 1 4.30354 1 6.08246 1H24.5052C26.2841 1 27.1731 1 27.8526 1.31487C28.4503 1.59184 28.9367 2.03346 29.2412 2.57704C29.5871 3.1944 29.5871 4.00299 29.5871 5.61776V22.3822C29.5871 23.0828 29.5871 23.6314 29.5588 24.0785M1.00008 22.6668C1.0013 24.0944 1.02124 24.8417 1.3462 25.4218C1.65073 25.9654 2.13629 26.4085 2.73396 26.6854C3.41275 27 4.3018 27 6.07724 27H24.5106C26.286 27 27.1738 27 27.8526 26.6854C28.4503 26.4085 28.9367 25.9654 29.2412 25.4218C29.437 25.0723 29.522 24.6618 29.5588 24.0785M1.00008 22.6668L8.57236 14.6319L8.5746 14.6297C9.24621 13.9171 9.58257 13.5602 9.98153 13.4315C10.332 13.3185 10.7146 13.3212 11.0633 13.4386C11.4607 13.5724 11.7917 13.9334 12.4537 14.6559L16.696 19.2859C17.3088 19.9548 17.617 20.2912 17.9912 20.4262C18.3213 20.5452 18.6853 20.5587 19.0259 20.4672C19.4136 20.3632 19.7548 20.0529 20.4373 19.4322L21.2267 18.7142C21.9215 18.0823 22.2689 17.7665 22.6621 17.6633C23.0075 17.5727 23.3767 17.5921 23.709 17.7169C24.0873 17.859 24.3941 18.2068 25.0079 18.9046L29.5588 24.0785M29.5588 24.0785L29.587 24.1105M20.058 9.66667C19.1809 9.66667 18.4699 9.01997 18.4699 8.22222C18.4699 7.42448 19.1809 6.77778 20.058 6.77778C20.9352 6.77778 21.6462 7.42448 21.6462 8.22222C21.6462 9.01997 20.9352 9.66667 20.058 9.66667Z" stroke="#8A8A8A" stroke-width="2" stroke-linecap="round" stroke-linejoin="round"/>
</svg>
